<svg xmlns="http://www.w3.org/2000/svg" width="24" height="24"><rect style="fill:green;stroke:none" width="24" height="24" ry="5"/><path style="fill:#fff;stroke-width:1.03694" d="M9.447 5.464C6.532 3.781 3.7 4.42 2.485 6.524c-1.215 2.105-.068 5.042 2.562 6.56 2.8 1.617 3.35.664 5.255 1.764 1.905 1.1 1.355 2.052 4.213 3.702 2.857 1.65 5.747 1.044 6.962-1.06 1.215-2.104.295-4.91-2.563-6.56-2.857-1.65-3.407-.697-5.312-1.797-1.905-1.1-1.355-2.052-4.155-3.669Z"/><path style="fill:#0f0;stroke:none;stroke-width:1px;stroke-linecap:butt;stroke-linejoin:miter;stroke-opacity:1;fill-opacity:1;opacity:.5" d="M21.377.623.623 21.377a4.964 4.964 0 0 0 2 2L23.377 2.623a4.964 4.964 0 0 0-2-2z"/></svg>