<svg xmlns="http://www.w3.org/2000/svg" width="24" height="24"><rect style="fill:green;stroke:none" width="24" height="24" ry="5"/><path style="fill:#fff;fill-opacity:1;fill-rule:evenodd;stroke:none;stroke-opacity:1" d="M2.63 6.416c-2.846 10.625 7.175 6.065 18.731 11.232 2.847-10.625-6.69-5.935-18.73-11.232zM5.517 8.76a2.502 1.997 34.093 0 1 1.543.424 2.502 1.997 34.093 0 1 1.164 3.033 2.502 1.997 34.093 0 1-3.121.455 2.502 1.997 34.093 0 1-1.165-3.033 2.502 1.997 34.093 0 1 1.579-.88zm6.156 1.215a2.502 1.997 19.093 0 1 .818.119 2.502 1.997 19.093 0 1 1.908 2.629 2.502 1.997 19.093 0 1-2.896 1.246 2.502 1.997 19.093 0 1-1.908-2.627 2.502 1.997 19.093 0 1 2.078-1.367zm5.676.994a2.502 1.997 34.093 0 1 1.543.424 2.502 1.997 34.093 0 1 1.162 3.033 2.502 1.997 34.093 0 1-3.121.455 2.502 1.997 34.093 0 1-1.162-3.033 2.502 1.997 34.093 0 1 1.578-.88z"/><path style="fill:#0f0;stroke:none;stroke-width:1px;stroke-linecap:butt;stroke-linejoin:miter;stroke-opacity:1;fill-opacity:1;opacity:.5" d="M21.377.623.623 21.377a4.964 4.964 0 0 0 2 2L23.377 2.623a4.964 4.964 0 0 0-2-2z"/></svg>