<svg xmlns="http://www.w3.org/2000/svg" width="24" height="24"><rect style="fill:green;stroke:none" width="24" height="24" ry="5"/><path style="fill:#fff;stroke:none;stroke-width:1px;stroke-linecap:butt;stroke-linejoin:miter;stroke-opacity:1" d="m10 22 1-16h2l1 16z"/><path style="fill:#fff;stroke:none;stroke-width:.894427px;stroke-linecap:butt;stroke-linejoin:miter;stroke-opacity:1" d="M8 5c0 3.2 1 4 5 4 0-2.4-2-4-5-4Z"/><path style="fill:#fff;stroke:none;stroke-width:.894427px;stroke-linecap:butt;stroke-linejoin:miter;stroke-opacity:1" d="M16 5c0 3.2-1 4-5 4 0-2.4 2-4 5-4z"/><path style="fill:#fff;stroke:none;stroke-width:1px;stroke-linecap:butt;stroke-linejoin:miter;stroke-opacity:1" d="M12 1.929C9.879 4.05 9.879 6.879 12 9c2.121-2.121 2.121-4.95 0-7.071Z"/><path style="fill:#fff;stroke:none;stroke-width:.894427px;stroke-linecap:butt;stroke-linejoin:miter;stroke-opacity:1" d="M8 5c0 3.2.59 3.776 4.59 3.776C12.59 6.376 11 5 8 5Z" transform="scale(.88362) rotate(-60 16.394 13.095)"/><path style="fill:#fff;stroke:none;stroke-width:.894427px;stroke-linecap:butt;stroke-linejoin:miter;stroke-opacity:1" d="M16 5c0 3.2-1 4-5 4 0-2.4 2-4 5-4z" transform="scale(.88362) rotate(-60 16.394 13.095)"/><path style="fill:#fff;stroke:none;stroke-width:1px;stroke-linecap:butt;stroke-linejoin:miter;stroke-opacity:1" d="M12 1.929C9.879 4.05 9.879 6.879 12 9c2.121-2.121 2.121-4.95 0-7.071Z" transform="scale(.88362) rotate(-60 16.394 13.095)"/><path style="fill:#fff;stroke:none;stroke-width:1px;stroke-linecap:butt;stroke-linejoin:miter;stroke-opacity:1" d="m8 13 2 8.714L12 20l-2.28-7.719L9 13Z"/><path style="fill:#fff;stroke:none;stroke-width:.894427px;stroke-linecap:butt;stroke-linejoin:miter;stroke-opacity:1" d="M8 5c0 3.2.59 3.776 4.59 3.776C12.59 6.376 11 5 8 5Z" transform="scale(-.88362 .88362) rotate(-60 2.813 36.617)"/><path style="fill:#fff;stroke:none;stroke-width:.894427px;stroke-linecap:butt;stroke-linejoin:miter;stroke-opacity:1" d="M16 5c0 3.2-1 4-5 4 0-2.4 2-4 5-4z" transform="scale(-.88362 .88362) rotate(-60 2.813 36.617)"/><path style="fill:#fff;stroke:none;stroke-width:1px;stroke-linecap:butt;stroke-linejoin:miter;stroke-opacity:1" d="M12 1.929C9.879 4.05 9.879 6.879 12 9c2.121-2.121 2.121-4.95 0-7.071Z" transform="scale(-.88362 .88362) rotate(-60 2.813 36.617)"/><path style="fill:#fff;stroke:none;stroke-width:1px;stroke-linecap:butt;stroke-linejoin:miter;stroke-opacity:1" d="m8 13 2 8.714L12 20l-2.28-7.719L9 13Z" transform="matrix(-1 0 0 1 24 0)"/><path style="fill:#0f0;stroke:none;stroke-width:1px;stroke-linecap:butt;stroke-linejoin:miter;stroke-opacity:1;fill-opacity:1;opacity:.5" d="M21.377.623.623 21.377a4.964 4.964 0 0 0 2 2L23.377 2.623a4.964 4.964 0 0 0-2-2z"/></svg>