<svg xmlns="http://www.w3.org/2000/svg" width="24" height="24"><rect style="fill:green;stroke:none" width="24" height="24" ry="5"/><path style="fill:#fff;stroke:none;stroke-width:.935414px;stroke-linecap:butt;stroke-linejoin:miter;stroke-opacity:1" d="M9 20c-4-6.125 1-9.625 1-14h5c0 4.375 5 7.875 1 14z" transform="scale(1 -1) rotate(30 55.517 -.464)"/><path style="fill:#fff;stroke:none;stroke-width:1px;stroke-linecap:butt;stroke-linejoin:miter;stroke-opacity:1" d="M10 5h5V4c-1.306-.23-1.612-1.143-2-2h-1c-.532.855-.91 1.928-2 2z" transform="scale(1 -1) rotate(30 55.517 -.464)"/><path style="fill:#0f0;stroke:none;stroke-width:1px;stroke-linecap:butt;stroke-linejoin:miter;stroke-opacity:1;fill-opacity:1;opacity:.5" d="M21.377.623.623 21.377a4.964 4.964 0 0 0 2 2L23.377 2.623a4.964 4.964 0 0 0-2-2z"/><path style="fill:#fff;stroke:none;stroke-width:.953459" d="M7 21h10v1H7z"/></svg>