<svg xmlns="http://www.w3.org/2000/svg" width="24" height="24"><rect style="fill:green;stroke:none" width="24" height="24" ry="5"/><path style="fill:#fff;stroke:none;stroke-width:.942809px;stroke-linecap:butt;stroke-linejoin:miter;stroke-opacity:1" d="M9.557 5C9.06 7.268 7 8.36 7 11v10.027c0 .974.001.973.736.973H15c.889 0 .889 0 .889-1V11c0-2.64-2.061-3.732-2.557-6H9.557zM8 11h1v10H8V11z"/><path style="opacity:1;fill:#fff;fill-opacity:1;fill-rule:evenodd;stroke:none;stroke-width:.757234;stroke-opacity:1" d="M10.556 2h1.777c.89 0 .89 0 .89 2H9.666c0-2 0-2 .889-2z"/><path style="fill:#0f0;stroke:none;stroke-width:1px;stroke-linecap:butt;stroke-linejoin:miter;stroke-opacity:1;fill-opacity:1;opacity:.5" d="M21.377.623.623 21.377a4.964 4.964 0 0 0 2 2L23.377 2.623a4.964 4.964 0 0 0-2-2z"/></svg>