<svg xmlns="http://www.w3.org/2000/svg" width="24" height="24"><rect style="fill:green;stroke:none" width="24" height="24" ry="5"/><path style="fill:#fff;stroke:none;stroke-width:1px;stroke-linecap:butt;stroke-linejoin:miter;stroke-opacity:1" d="M5 5c0 4 1 5 5 5 0-3-2-5-5-5ZM5 10c0 4 1 5 5 5 0-3-2-5-5-5zM5 15c0 4 1 5 5 5 0-3-2-5-5-5zM15 5c0 4-1 5-5 5 0-3 2-5 5-5zM15 10c0 4-1 5-5 5 0-3 2-5 5-5zM15 15c0 4-1 5-5 5 0-3 2-5 5-5z" transform="translate(2 2)"/><path style="fill:#fff;stroke:none;stroke-width:1px;stroke-linecap:butt;stroke-linejoin:miter;stroke-opacity:1" d="M10 0c-2.121 2.121-2.121 4.95 0 7.071C12.121 4.95 12.121 2.121 10 0Z" transform="translate(2 2)"/><path style="fill:#0f0;stroke:none;stroke-width:1px;stroke-linecap:butt;stroke-linejoin:miter;stroke-opacity:1;fill-opacity:1;opacity:.5" d="M21.377.623.623 21.377a4.964 4.964 0 0 0 2 2L23.377 2.623a4.964 4.964 0 0 0-2-2z"/></svg>