<svg xmlns="http://www.w3.org/2000/svg" width="24" height="24"><rect style="fill:green;stroke:none" width="24" height="24" ry="5"/><path style="opacity:1;fill:#fff;fill-opacity:1;fill-rule:evenodd;stroke:none;stroke-width:1.0623;stroke-opacity:1" d="M12 4c9.747 1.083 11.148 11.964 1.202 18.396C15.646 21.273 21 19.089 21 11.52 21 5.93 16.97 4 12 4Zm0 0c6.647 4.431 5.096 14.305.222 18.903.014-.01.035-.02.05-.03C22.411 13.978 18.686 6.228 12 4Zm0 0c1.125 3.375 1.125 13.5 0 19.125C16.164 16.375 15.375 8.5 12 4Zm0 0c-3.375 4.5-4.164 12.375 0 19.125C10.875 17.5 10.875 7.375 12 4Zm0 0c-6.686 2.229-10.41 9.979-.272 18.872.015.01.036.021.05.031C6.904 18.305 5.353 8.431 12 4Zm0 0c-4.97 0-9 1.93-9 7.521 0 7.568 5.354 9.752 7.798 10.875C.852 15.964 2.253 5.083 12 4Z" transform="matrix(1 0 0 .99346 0 -.974)"/><path style="opacity:1;fill:#fff;fill-opacity:1;fill-rule:evenodd;stroke:none;stroke-width:1.0623;stroke-opacity:1" d="M12 4c-3.171 0-5.953.792-7.556 2.813C6.047 8.832 8.829 9.624 12 9.624c3.171 0 5.953-.792 7.556-2.813C17.953 4.793 15.171 4 12 4Z" transform="matrix(1 0 0 .99346 0 -.974)"/><path style="fill:#0f0;stroke:none;stroke-width:1px;stroke-linecap:butt;stroke-linejoin:miter;stroke-opacity:1;fill-opacity:1;opacity:.5" d="M21.377.623.623 21.377a4.964 4.964 0 0 0 2 2L23.377 2.623a4.964 4.964 0 0 0-2-2z"/></svg>