<svg xmlns="http://www.w3.org/2000/svg" width="24" height="24"><rect style="fill:green;stroke:none" width="24" height="24" ry="5"/><path style="fill:#fff;stroke:none;stroke-width:1px;stroke-linecap:butt;stroke-linejoin:miter;stroke-opacity:1" d="M14 20c-3.864 1.035-6.876-1.464-7-3 2.898-.776 6.224.102 7 3z"/><path style="fill:#fff;stroke-width:.898207" d="M9.5 6C7 6 4 7 2 12c2 5 5 6 7.5 6 4.142 0 7.5-2.686 7.5-6s-3.358-6-7.5-6zM5.398 8.967a1 1 0 0 1 1 1 1 1 0 0 1-1 1 1 1 0 0 1-1-1 1 1 0 0 1 1-1z"/><path style="fill:#fff;stroke:none;stroke-width:1px;stroke-linecap:butt;stroke-linejoin:miter;stroke-opacity:1" d="M22 7c-3 0-5 2-5 5s2 5 5 5c-.271-2.503-1-5-2.984-5.021C21 12 22 10.46 22 7ZM14 4c-3.864-1.035-6.876 1.464-7 3 2.898.776 6.224-.102 7-3Z"/><path style="fill:#0f0;stroke:none;stroke-width:1px;stroke-linecap:butt;stroke-linejoin:miter;stroke-opacity:1;fill-opacity:1;opacity:.5" d="M21.377.623.623 21.377a4.964 4.964 0 0 0 2 2L23.377 2.623a4.964 4.964 0 0 0-2-2z"/></svg>