<svg xmlns="http://www.w3.org/2000/svg" width="24" height="24"><rect style="fill:green;stroke:none" width="24" height="24" ry="5"/><path style="fill:#fff;stroke:none;stroke-width:1px;stroke-linecap:butt;stroke-linejoin:miter;stroke-opacity:1" d="M2 5c0 4 1 5 5 5 0-3-2-5-5-5Z"/><path style="fill:#fff;stroke:none;stroke-width:1px;stroke-linecap:butt;stroke-linejoin:miter;stroke-opacity:1" d="M7 3c2.828 2.828 2.828 4.243 0 7.071C4.879 7.95 4.879 5.121 7 3ZM22 5c0 4-1 5-5 5 0-3 2-5 5-5z"/><path style="fill:#fff;stroke:none;stroke-width:1px;stroke-linecap:butt;stroke-linejoin:miter;stroke-opacity:1" d="M17 3c-2.828 2.828-2.828 4.243 0 7.071C19.121 7.95 19.121 5.121 17 3Z"/><path style="fill:#fff;stroke-width:.871524" d="M12 9a7.061 6 0 0 0-1.402.121 1 1 0 0 1 .525.879 1 1 0 0 1-1 1 1 1 0 0 1-1-1 1 1 0 0 1 .156-.535A7.061 6 0 0 0 4.94 15 7.061 6 0 0 0 12 21a7.061 6 0 0 0 7.06-6 7.061 6 0 0 0-4.34-5.535 1 1 0 0 1 .157.535 1 1 0 0 1-1 1 1 1 0 0 1-1-1 1 1 0 0 1 .523-.879A7.061 6 0 0 0 12 9z"/><path style="fill:#0f0;stroke:none;stroke-width:1px;stroke-linecap:butt;stroke-linejoin:miter;stroke-opacity:1;fill-opacity:1;opacity:.5" d="M21.377.623.623 21.377a4.964 4.964 0 0 0 2 2L23.377 2.623a4.964 4.964 0 0 0-2-2z"/></svg>