<svg xmlns="http://www.w3.org/2000/svg" width="24" height="24"><rect style="fill:green;stroke:none" width="24" height="24" ry="5"/><path style="fill:#fff;stroke:none;stroke-width:1px;stroke-linecap:butt;stroke-linejoin:miter;stroke-opacity:1" d="M7 4c-2.598 1.5-3.33 4.232-1.83 6.83C7.768 9.33 8.5 6.598 7 4ZM9 2c0 3 2 5 5 5 0-3-2-5-5-5ZM8.17 20.83c2.598 1.5 5.33.768 6.83-1.83-2.598-1.5-5.33-.768-6.83 1.83ZM21 15c-2.898.776-4.312 3.226-3.536 6.124C20.362 20.347 21.776 17.898 21 15ZM11.876 11.464C12.653 14.362 15.102 15.776 18 15c-.776-2.898-3.226-4.312-6.124-3.536ZM9.071 15C6.95 12.879 4.121 12.879 2 15c2.121 2.121 4.95 2.121 7.071 0zM17 10c3 0 5-2 5-5-3 0-5 2-5 5z"/><path style="fill:#0f0;stroke:none;stroke-width:1px;stroke-linecap:butt;stroke-linejoin:miter;stroke-opacity:1;fill-opacity:1;opacity:.5" d="M21.377.623.623 21.377a4.964 4.964 0 0 0 2 2L23.377 2.623a4.964 4.964 0 0 0-2-2z"/></svg>